<?xml version="1.0" encoding="iso-8859-1"?>
<!-- Generator: Adobe Illustrator 22.0.0, SVG Export Plug-In . SVG Version: 6.00 Build 0)  -->
<svg version="1.1" id="Layer_1" xmlns="http://www.w3.org/2000/svg" xmlns:xlink="http://www.w3.org/1999/xlink" x="0px" y="0px"
	 viewBox="0 0 141.7 85" style="enable-background:new 0 0 141.7 85;" xml:space="preserve">
<style type="text/css">
	.st0{fill:#FFFFFF;}
</style>
<g>
	<path class="st0" d="M70.9,48.5"/>
	<g>
		<path class="st0" d="M18.7,51.3l4.5,1.4c-0.7,2.5-1.8,4.3-3.4,5.5c-1.6,1.2-3.6,1.8-6.1,1.8c-3,0-5.5-1-7.5-3.1
			c-2-2.1-2.9-4.9-2.9-8.5c0-3.8,1-6.7,2.9-8.8s4.5-3.2,7.7-3.2c2.8,0,5.1,0.8,6.8,2.5c1,1,1.8,2.4,2.3,4.2l-4.6,1.1
			c-0.3-1.2-0.8-2.1-1.7-2.8c-0.9-0.7-1.9-1-3.1-1c-1.7,0-3.1,0.6-4.1,1.8C8.6,43.5,8,45.4,8,48.2c0,2.9,0.5,4.9,1.6,6.2
			c1,1.2,2.4,1.8,4,1.8c1.2,0,2.3-0.4,3.2-1.2C17.7,54.2,18.3,53,18.7,51.3z"/>
		<path class="st0" d="M26.2,48.4c0-2.3,0.3-4.3,1-5.9c0.5-1.2,1.2-2.2,2.1-3.1c0.9-0.9,1.9-1.6,2.9-2.1c1.4-0.6,3.1-0.9,4.9-0.9
			c3.4,0,6.1,1,8.1,3.1c2,2.1,3,5,3,8.7c0,3.7-1,6.6-3,8.6c-2,2.1-4.7,3.1-8,3.1c-3.4,0-6.1-1-8.1-3.1S26.2,52.1,26.2,48.4z
			 M30.9,48.3c0,2.6,0.6,4.5,1.8,5.9c1.2,1.3,2.7,2,4.5,2s3.3-0.7,4.5-2s1.8-3.3,1.8-6c0-2.6-0.6-4.6-1.7-5.9
			c-1.1-1.3-2.7-1.9-4.6-1.9c-1.9,0-3.4,0.7-4.6,2C31.5,43.7,30.9,45.7,30.9,48.3z"/>
		<path class="st0" d="M51.9,59.7V36.9h6.9l4.1,15.6L67,36.9h6.9v22.8h-4.3v-18l-4.5,18h-4.4l-4.5-18v18H51.9z"/>
		<path class="st0" d="M99,59.7h-5l-2-5.2h-9.1L81,59.7h-4.9L85,36.9h4.9L99,59.7z M90.6,50.7l-3.1-8.5l-3.1,8.5H90.6z"/>
		<path class="st0" d="M101.5,59.7V36.9h15.6v3.9h-11v5.4h9.5V50h-9.5v9.7H101.5z"/>
		<path class="st0" d="M121,59.7V36.9h7.4c2.8,0,4.6,0.1,5.5,0.3c1.3,0.3,2.4,1.1,3.3,2.2c0.9,1.1,1.3,2.6,1.3,4.4
			c0,1.4-0.3,2.6-0.8,3.5c-0.5,1-1.2,1.7-1.9,2.2c-0.8,0.5-1.6,0.9-2.4,1.1c-1.1,0.2-2.7,0.3-4.8,0.3h-3v8.6H121z M125.6,40.7v6.5
			h2.5c1.8,0,3-0.1,3.6-0.4c0.6-0.2,1.1-0.6,1.4-1.1c0.3-0.5,0.5-1.1,0.5-1.8c0-0.8-0.2-1.5-0.7-2.1c-0.5-0.5-1.1-0.9-1.9-1
			c-0.5-0.1-1.7-0.2-3.3-0.2H125.6z"/>
	</g>
	<g>
		<path class="st0" d="M11.2,72.9l2,0.6c-0.3,1.1-0.8,2-1.5,2.5c-0.7,0.5-1.6,0.8-2.7,0.8c-1.4,0-2.5-0.5-3.4-1.4s-1.3-2.2-1.3-3.8
			c0-1.7,0.4-3,1.3-4c0.9-0.9,2-1.4,3.5-1.4c1.3,0,2.3,0.4,3.1,1.1c0.5,0.4,0.8,1.1,1.1,1.9l-2.1,0.5c-0.1-0.5-0.4-1-0.8-1.3
			C10,68.1,9.5,68,8.9,68c-0.8,0-1.4,0.3-1.9,0.8c-0.5,0.5-0.7,1.4-0.7,2.7c0,1.3,0.2,2.2,0.7,2.8c0.5,0.6,1.1,0.8,1.8,0.8
			c0.6,0,1-0.2,1.4-0.5S11,73.6,11.2,72.9z"/>
		<path class="st0" d="M14.5,72.8c0-0.7,0.2-1.3,0.5-1.9c0.3-0.6,0.8-1.1,1.4-1.4c0.6-0.3,1.3-0.5,2-0.5c1.1,0,2.1,0.4,2.8,1.1
			c0.7,0.7,1.1,1.7,1.1,2.8c0,1.1-0.4,2.1-1.1,2.8c-0.7,0.7-1.6,1.1-2.8,1.1c-0.7,0-1.3-0.2-2-0.5c-0.6-0.3-1.1-0.8-1.4-1.4
			C14.7,74.4,14.5,73.7,14.5,72.8z M16.5,73c0,0.7,0.2,1.3,0.5,1.7c0.4,0.4,0.8,0.6,1.3,0.6c0.5,0,0.9-0.2,1.3-0.6s0.5-1,0.5-1.7
			c0-0.7-0.2-1.3-0.5-1.7s-0.8-0.6-1.3-0.6c-0.5,0-0.9,0.2-1.3,0.6C16.7,71.6,16.5,72.2,16.5,73z"/>
		<path class="st0" d="M23.6,69.2h1.8v1c0.7-0.8,1.4-1.2,2.3-1.2c0.5,0,0.9,0.1,1.2,0.3c0.4,0.2,0.6,0.5,0.9,0.9
			c0.3-0.4,0.7-0.7,1.1-0.9c0.4-0.2,0.8-0.3,1.2-0.3c0.5,0,1,0.1,1.4,0.3s0.7,0.5,0.9,1c0.1,0.3,0.2,0.8,0.2,1.5v4.8h-2v-4.3
			c0-0.7-0.1-1.2-0.2-1.4c-0.2-0.3-0.5-0.4-0.8-0.4c-0.3,0-0.5,0.1-0.8,0.3c-0.2,0.2-0.4,0.4-0.5,0.7c-0.1,0.3-0.2,0.8-0.2,1.5v3.6
			h-2v-4.1c0-0.7,0-1.2-0.1-1.4s-0.2-0.4-0.3-0.5c-0.1-0.1-0.3-0.2-0.6-0.2c-0.3,0-0.6,0.1-0.8,0.2c-0.2,0.2-0.4,0.4-0.5,0.7
			c-0.1,0.3-0.2,0.8-0.2,1.5v3.6h-2V69.2z"/>
		<path class="st0" d="M36.6,68.2v-1.8h2v1.8H36.6z M36.6,76.7v-7.5h2v7.5H36.6z"/>
		<path class="st0" d="M44,69.2v1.6h-1.3v3c0,0.6,0,1,0,1.1c0,0.1,0.1,0.2,0.2,0.2s0.2,0.1,0.3,0.1c0.2,0,0.4-0.1,0.8-0.2l0.2,1.5
			c-0.5,0.2-1,0.3-1.6,0.3c-0.4,0-0.7-0.1-1-0.2c-0.3-0.1-0.5-0.3-0.6-0.5c-0.1-0.2-0.2-0.4-0.3-0.8c0-0.2-0.1-0.7-0.1-1.4v-3.3
			h-0.9v-1.6h0.9v-1.5l2-1.2v2.6H44z"/>
		<path class="st0" d="M49.7,74.3l2,0.3c-0.3,0.7-0.7,1.3-1.2,1.6c-0.5,0.4-1.2,0.6-2,0.6c-1.3,0-2.3-0.4-2.9-1.3
			C45,74.9,44.8,74,44.8,73c0-1.2,0.3-2.2,1-2.9s1.5-1.1,2.5-1.1c1.1,0,2,0.4,2.6,1.1c0.6,0.7,0.9,1.9,0.9,3.4h-4.9
			c0,0.6,0.2,1,0.5,1.4c0.3,0.3,0.7,0.5,1.1,0.5c0.3,0,0.6-0.1,0.8-0.3C49.4,75,49.6,74.7,49.7,74.3z M49.8,72.3
			c0-0.6-0.2-1-0.4-1.3c-0.3-0.3-0.6-0.4-1-0.4c-0.4,0-0.8,0.2-1.1,0.5c-0.3,0.3-0.4,0.7-0.4,1.3H49.8z M47.3,68.3l1-2.1h2.2
			l-1.9,2.1H47.3z"/>
		<path class="st0" d="M57.3,76.7V66.4h3.1l1.9,7l1.8-7h3.1v10.3h-1.9v-8.1l-2,8.1h-2l-2-8.1v8.1H57.3z"/>
		<path class="st0" d="M73.7,74.3l2,0.3c-0.3,0.7-0.7,1.3-1.2,1.6c-0.5,0.4-1.2,0.6-2,0.6c-1.3,0-2.3-0.4-2.9-1.3
			C69,74.9,68.8,74,68.8,73c0-1.2,0.3-2.2,1-2.9s1.5-1.1,2.5-1.1c1.1,0,2,0.4,2.6,1.1c0.6,0.7,0.9,1.9,0.9,3.4h-4.9
			c0,0.6,0.2,1,0.5,1.4c0.3,0.3,0.7,0.5,1.1,0.5c0.3,0,0.6-0.1,0.8-0.3C73.4,75,73.6,74.7,73.7,74.3z M73.8,72.3
			c0-0.6-0.2-1-0.4-1.3c-0.3-0.3-0.6-0.4-1-0.4c-0.4,0-0.8,0.2-1.1,0.5c-0.3,0.3-0.4,0.7-0.4,1.3H73.8z M71.3,68.3l1-2.1h2.2
			l-1.9,2.1H71.3z"/>
		<path class="st0" d="M84.2,76.7h-1.8v-1.1c-0.3,0.4-0.7,0.7-1.1,1c-0.4,0.2-0.8,0.3-1.3,0.3c-0.9,0-1.6-0.3-2.2-1
			c-0.6-0.7-0.9-1.7-0.9-2.9c0-1.3,0.3-2.2,0.9-2.9s1.3-1,2.3-1c0.8,0,1.6,0.3,2.2,1v-3.7h2V76.7z M78.9,72.8c0,0.8,0.1,1.4,0.3,1.7
			c0.3,0.5,0.8,0.8,1.3,0.8c0.5,0,0.8-0.2,1.2-0.6c0.3-0.4,0.5-1,0.5-1.7c0-0.9-0.2-1.5-0.5-1.9c-0.3-0.4-0.7-0.6-1.2-0.6
			c-0.5,0-0.9,0.2-1.2,0.6C79.1,71.5,78.9,72.1,78.9,72.8z"/>
		<path class="st0" d="M86.1,68.2v-1.8h2v1.8H86.1z M86.1,76.7v-7.5h2v7.5H86.1z"/>
		<path class="st0" d="M96.7,71.4l-1.9,0.4c-0.1-0.4-0.2-0.7-0.4-0.9c-0.2-0.2-0.5-0.3-0.9-0.3c-0.5,0-0.9,0.2-1.2,0.5
			c-0.3,0.3-0.4,0.9-0.4,1.7c0,0.9,0.1,1.5,0.4,1.9c0.3,0.4,0.7,0.5,1.2,0.5c0.4,0,0.7-0.1,0.9-0.3c0.2-0.2,0.4-0.6,0.5-1.1l1.9,0.3
			c-0.2,0.9-0.6,1.6-1.2,2c-0.6,0.5-1.3,0.7-2.3,0.7c-1.1,0-2-0.3-2.6-1c-0.6-0.7-1-1.6-1-2.9c0-1.2,0.3-2.2,1-2.9
			c0.7-0.7,1.5-1,2.6-1c0.9,0,1.6,0.2,2.2,0.6S96.4,70.6,96.7,71.4z"/>
		<path class="st0" d="M97.7,72.8c0-0.7,0.2-1.3,0.5-1.9c0.3-0.6,0.8-1.1,1.4-1.4c0.6-0.3,1.3-0.5,2-0.5c1.1,0,2.1,0.4,2.8,1.1
			c0.7,0.7,1.1,1.7,1.1,2.8c0,1.1-0.4,2.1-1.1,2.8c-0.7,0.7-1.6,1.1-2.8,1.1c-0.7,0-1.3-0.2-2-0.5c-0.6-0.3-1.1-0.8-1.4-1.4
			C97.9,74.4,97.7,73.7,97.7,72.8z M99.7,73c0,0.7,0.2,1.3,0.5,1.7c0.4,0.4,0.8,0.6,1.3,0.6c0.5,0,0.9-0.2,1.3-0.6s0.5-1,0.5-1.7
			c0-0.7-0.2-1.3-0.5-1.7s-0.8-0.6-1.3-0.6c-0.5,0-0.9,0.2-1.3,0.6C99.9,71.6,99.7,72.2,99.7,73z"/>
		<path class="st0" d="M119.7,76.7h-2.3l-0.9-2.3h-4.1l-0.9,2.3h-2.2l4-10.3h2.2L119.7,76.7z M115.9,72.6l-1.4-3.8l-1.4,3.8H115.9z"
			/>
		<path class="st0" d="M120.8,76.7V66.4h7.1v1.7h-5v2.4h4.3v1.7h-4.3v4.4H120.8z"/>
		<path class="st0" d="M129.6,76.7V66.4h3.3c1.3,0,2.1,0.1,2.5,0.2c0.6,0.2,1.1,0.5,1.5,1c0.4,0.5,0.6,1.2,0.6,2
			c0,0.6-0.1,1.2-0.3,1.6c-0.2,0.4-0.5,0.8-0.9,1s-0.7,0.4-1.1,0.5c-0.5,0.1-1.2,0.1-2.2,0.1h-1.4v3.9H129.6z M131.7,68.1V71h1.1
			c0.8,0,1.4-0.1,1.6-0.2c0.3-0.1,0.5-0.3,0.6-0.5c0.2-0.2,0.2-0.5,0.2-0.8c0-0.4-0.1-0.7-0.3-0.9c-0.2-0.2-0.5-0.4-0.8-0.5
			c-0.2,0-0.7-0.1-1.5-0.1H131.7z"/>
	</g>
	<polygon class="st0" points="28,4.9 28,25.6 113.7,25.6 	"/>
</g>
</svg>
